# xmcd
# 
# Track frame offsets:
#     150
#     25630
#     50392
#     80575
#     109732
#     141207
# 
# Disc length: 2183
# 
# Revision: 1
# Processed by: cddbd v1.5.2PL0 Copyright (c) Steve Scherf et al.
# Submitted via: BonkEnc v1.0.8
# 
DISCID=45088506
DTITLE=David Matthews - Shoogie Wanna Boogie
DYEAR=1976
DGENRE=Fusion
TTITLE0=Shoogie Wanna  Boogie
TTITLE1=My Girl
TTITLE2=You Keep Me Hanging On
TTITLE3=California Dreaming
TTITLE4=Gotta Be Where You Are
TTITLE5=Just My Imagination Running Away With Me
EXTD=
EXTT0=
EXTT1=
EXTT2=
EXTT3=
EXTT4=
EXTT5=
PLAYORDER=
